<?xml version="1.0" encoding="UTF-8"?>
<svg width="414px" height="180px" viewBox="0 0 414 180" version="1.1" xmlns="http://www.w3.org/2000/svg" xmlns:xlink="http://www.w3.org/1999/xlink">
    <title>pony-cause</title>
    <defs>
        <path d="M283.084704,3.90680088 L282.694945,5.71765238 L300.370595,4.55408384 L297.52501,19.3511263 C297.261213,20.7228705 296.918321,22.5430778 296.496246,24.8117315 C296.076492,27.0679072 295.617486,29.6389157 295.119029,32.5247213 C294.597156,35.5460863 294.006778,38.6910834 293.347571,41.9596525 C292.708654,45.127616 292.083047,48.2423364 291.470752,51.3038137 C290.837603,54.4695569 290.217888,57.3737094 289.612268,60.0164139 C288.538925,64.391538 287.023697,67.9590418 285.137217,70.9182258 C283.098526,74.1161724 280.678879,76.7321847 277.923448,78.8087421 C275.121992,80.9199839 272.13076,82.4466096 268.965804,83.4204425 C265.905517,84.362069 262.844229,84.8226524 259.784945,84.8226524 C257.5872,84.8226524 255.337599,84.484766 253.042195,83.7674522 C250.563411,82.9928322 248.349643,81.8197492 246.388502,80.27148 C244.345375,78.6584846 242.625096,76.6351544 241.2787,74.1577856 C239.87513,71.5752169 239.064945,68.5635332 239.064945,65.0626524 L239.064945,64.4226524 C239.064945,63.7229238 239.12273,63.0228468 239.241244,62.3223815 C239.471957,60.0792263 239.824438,57.4146762 240.303206,54.3292791 C240.784907,51.2249843 241.293367,47.9868833 241.82859,44.6149769 C242.377165,41.1589523 242.98057,37.6892083 243.638861,34.2057546 C244.274725,30.8409755 244.844371,27.7808845 245.347763,25.0254749 C245.868441,22.1754476 246.320982,19.805066 246.704639,17.9141845 C246.927731,16.814659 247.107153,15.9498672 247.242112,15.3196336 L247.317745,14.9696391 C247.352888,14.8087139 247.384015,14.6688958 247.411104,14.5501801 L248.680229,8.9884261 L254.113716,7.25032195 C255.869773,6.68858148 257.827387,6.40063745 260.115636,6.16404037 C261.794889,5.99032739 263.284915,5.85224749 264.665292,5.74106078 C266.279099,5.58480043 267.867304,5.42854085 269.429908,5.27228048 L283.084704,3.90680088 Z M140.649833,1.71576907 C137.500401,14.9798607 134.859622,27.2235224 132.729584,38.4471824 C132.072727,41.6810355 131.454309,44.8258028 130.849041,48.0100425 C130.241929,51.2039769 129.674392,54.265927 129.146469,57.1958999 C128.63354,60.0426548 128.197146,62.6841745 127.838095,65.1205903 C127.477531,67.5672757 127.193761,69.6147036 126.987724,71.2629997 L126.117998,78.2208076 L117.329018,80.1500958 C116.254346,80.3859994 115.022411,80.6612473 113.633202,80.9757854 L109.393202,81.9357854 C108.6032,82.1146538 108.003315,82.246655 107.614736,82.3961084 L95.0590519,87.2252177 L94.6269451,81.4686524 L70.5209453,87.0832166 C73.1575685,74.7179243 75.6025327,62.9295127 77.8549354,51.7163659 L78.2750042,49.6206418 C78.8082643,46.5315287 79.380796,43.3376184 79.9926513,40.0389205 C80.5939081,36.7973619 81.1559789,33.5950203 81.678811,30.4318864 C82.200417,27.2761704 82.6699566,24.25087 83.0872414,21.3559564 C83.48519,18.5951881 83.7852421,16.095741 83.9842187,13.8572545 L84.8591566,4.01420341 L94.7119101,4.77210753 C95.1031057,4.8021995 95.4340043,4.82265238 95.7049451,4.82265238 L97.6844396,4.8218805 C98.3012194,4.81879939 99.0247449,4.80653288 99.8550232,4.78577592 C100.838538,4.76118804 101.822054,4.72430476 102.805569,4.67512899 C103.892392,4.62078784 105.060726,4.56643196 106.310573,4.5120908 L114.870438,4.13992274 L115.014945,4.86865238 L140.649833,1.71576907 Z M76.4249451,3.54265238 C81.0099845,3.54265238 84.7219942,4.68454054 87.6978355,6.55074611 C90.7383342,8.45749954 93.0935025,10.9434746 94.7925266,13.9811238 C96.1733869,16.4499347 97.1842186,19.2240397 97.7706476,22.3237357 C98.2612099,24.9167079 98.5049451,27.5097759 98.5049451,30.1026524 C98.5049451,35.3073276 97.9362832,40.2083484 96.8257672,44.8090577 C95.7186492,49.3956895 94.2368145,53.5983578 92.4025003,57.4251168 C90.5009763,61.3920893 88.2774166,64.9255185 85.7535837,68.0393384 C83.2144858,71.1719916 80.5496571,73.8317109 77.7805392,76.0404121 C74.7319734,78.4720062 71.6331317,80.2957556 68.5144926,81.5649691 C64.90335,83.0346202 61.4522372,83.7026524 58.1849451,83.7026524 C54.8767396,83.7026524 51.8840801,83.0274931 49.1837094,81.7773215 C46.3954916,80.4864799 43.9469169,78.6004324 41.8783331,76.0664173 C40.0732984,73.8552498 38.5652153,71.052984 37.5232642,67.5647129 C36.672715,64.7172222 36.1849451,61.3035404 36.1849451,57.3026524 C36.1849451,53.6202101 36.6296508,49.7382456 37.5505351,45.6600437 C38.4078339,41.8634348 39.5695963,38.0968696 41.0392856,34.3614093 C42.5548422,30.5093696 44.418161,26.8470205 46.6283302,23.3738975 C48.8940166,19.8135332 51.3938128,16.6642579 54.1121612,13.9135483 C57.1243973,10.8654521 60.3651899,8.46539229 63.8056009,6.67351154 C67.8437911,4.57028751 72.0540695,3.54265238 76.4249451,3.54265238 Z M310.984945,4.98265238 C313.348933,4.98265238 315.578973,5.28160427 317.6791,5.85038866 C320.421493,6.59312017 322.769965,7.82930544 324.765124,9.48243677 C326.787625,11.1582232 328.434029,13.2481211 329.649755,15.7953565 C330.757957,18.1173021 331.464945,20.9929838 331.464945,24.5026524 C331.464945,25.8352157 331.347191,27.1679233 331.109221,28.5005588 C331.004647,29.0861739 330.911381,29.7137411 330.827724,30.3829997 L330.011091,36.9160625 L321.996945,39.2376524 L322.042362,39.3150614 C322.587888,40.2766308 323.092775,41.3099143 323.551741,42.4182319 L323.777373,42.9786589 C324.872184,45.7765086 325.544945,49.3058264 325.544945,53.6226524 C325.544945,58.189216 324.616348,62.3115201 322.866366,66.014972 C321.144157,69.6596456 318.814291,72.7978186 315.891417,75.440417 C313.011617,78.0440717 309.631155,80.0792122 305.722376,81.5005866 C302.023454,82.8456492 298.047301,83.5426524 293.784945,83.5426524 C290.08609,83.5426524 286.361991,82.6258153 282.650514,80.6308964 C278.092085,78.1807408 273.611978,73.8295809 269.653068,67.0184546 L280.076945,46.5926524 L280.040422,46.5445088 C279.665066,46.0414645 279.306481,45.5255249 278.964633,44.9967195 L278.628362,44.4636266 C276.811171,41.5106918 275.864945,38.2243153 275.864945,34.5826524 C275.864945,29.7915446 277.247844,25.3041523 280.109869,21.1496 C282.433436,17.7766796 285.329656,14.8630535 288.816238,12.4261948 C292.049131,10.1666458 295.57545,8.37186949 299.399743,7.05075033 C303.484269,5.63973207 307.350946,4.98265238 310.984945,4.98265238 Z M210.184945,4.90265238 C212.903794,4.90265238 215.51027,5.46593986 218.002975,6.59898761 C220.464356,7.71779753 222.589087,9.28531866 224.379038,11.299014 C226.015151,13.1396405 227.363804,15.3656123 228.337594,18.0307229 C229.219012,20.4430236 229.704945,23.1279321 229.704945,26.1026524 L229.704945,27.1026524 C229.704945,27.9030712 229.647611,28.7346687 229.52444,29.5968659 L228.589967,36.1381798 L211.726162,40.6437766 L211.489629,37.3346509 C211.017861,37.8333775 210.585731,38.5035007 210.129245,39.2956386 C209.390881,40.5769169 208.678492,42.0122819 207.983637,43.5974213 L208.064945,43.4146524 L225.567697,50.4764931 C223.387826,58.2387664 220.50898,64.4537617 217.127776,69.2367695 L216.787989,69.7103013 C214.704443,72.5707623 212.498484,74.9553401 210.204368,76.8965152 C207.552774,79.140171 204.857968,80.7479146 202.17019,81.8067363 C199.150262,82.9964049 196.216124,83.5426524 193.384945,83.5426524 C189.963881,83.5426524 186.860392,82.7301044 184.052357,81.1884379 C181.397255,79.730735 179.016975,77.6055634 177.030187,74.6776666 C175.478853,72.3914901 174.177471,69.5979839 173.236525,66.2433067 C172.407515,63.2877037 171.944945,59.8324674 171.944945,55.8626524 C171.944945,49.9261448 172.763677,44.0681576 174.405749,38.2893288 C176.075965,32.4114502 178.438699,27.1371076 181.456905,22.4492565 C184.723973,17.3748734 188.626862,13.3218966 193.106125,10.231553 C198.259734,6.67596227 203.953603,4.90265238 210.184945,4.90265238 Z M38.0249451,4.34265238 C42.2051845,4.34265238 45.662932,5.18462338 48.4781417,6.56915272 C51.5986863,8.10384679 54.1034233,10.2036851 56.0437734,12.8078392 C57.8434302,15.2231681 59.1600267,18.0261263 59.9191168,21.252259 C60.5131181,23.7767647 60.8249451,26.4856846 60.8249451,29.3826524 C60.8249451,33.6372144 60.0455465,37.739659 58.4881043,41.690244 C56.9772423,45.5226745 54.9390864,48.9235716 52.3973774,51.9073169 C49.7255833,55.0437709 46.6561478,57.5265815 43.2118396,59.3841859 C41.7509293,60.1720926 40.2677115,60.8076036 38.7630447,61.2942163 L38.6299451,61.3366524 L38.5774624,61.6451569 C38.3705627,62.870205 38.1834907,64.035582 38.0163953,65.1413118 L37.9185365,65.7975923 C37.5159397,68.1196564 37.1822888,70.1728562 36.8743086,72.2260569 L35.8288412,79.1958397 L0,86.2373461 C2.86485888,73.8040044 5.50398975,61.8235262 7.91699076,50.2935314 C8.49813618,47.4402804 9.10551659,44.4295999 9.73913835,41.261491 C10.3725063,38.0946514 10.9794926,34.9805942 11.5600799,31.9193159 C12.1439675,28.8406356 12.7013181,25.8681173 13.2321251,23.0017598 C13.7463498,20.2249463 14.1838226,17.6795968 14.5437804,15.3655823 L15.502696,9.20112525 L21.460953,7.35201101 C23.2459049,6.79806042 25.0002629,6.32175192 26.723648,5.92168038 C28.4086071,5.53052918 30.1386308,5.18415359 31.9138628,4.8832668 C34.0793514,4.51623483 36.1168968,4.34265238 38.0249451,4.34265238 Z M364.974864,3.18403958 L360.434203,17.454689 C360.155015,18.3321367 359.916126,19.2296304 359.716709,20.1469488 C359.382857,21.4523536 359.161938,22.3721109 358.952389,23.3267253 C358.737135,24.3073264 358.557171,25.1801853 358.413667,25.9455377 L357.033262,33.3076963 L355.694945,33.4426524 L354.80444,39.6768659 C354.666377,40.643308 354.534059,41.5982439 354.407497,42.5416748 L354.22197,43.9481927 C354.015266,45.5427708 353.764514,47.1669181 353.469221,48.8205588 L352.219945,55.8116524 L350.261671,78.1457307 L302.758941,85.4990945 L317.172755,7.26839704 L364.974864,3.18403958 Z M260.249004,1.94041127 L259.021287,15.0360595 C258.866283,16.6894369 258.698746,18.7432732 258.517908,21.1975023 C258.335749,23.6696711 258.166763,26.3630439 258.010626,29.2775996 C257.851374,32.25031 257.692126,35.355731 257.532873,38.593862 C257.373761,41.8291535 257.214648,45.0117926 257.055552,48.1429972 C256.789361,55.4878804 256.496665,63.2833679 256.177461,71.5294595 L255.862434,79.6676752 L247.828935,81.0065916 C246.113724,81.2924601 244.398503,81.5242546 242.683552,81.7021459 C241.445442,81.9009379 240.093905,82.12243 238.628935,82.3665916 L221.129879,85.283101 L221.574945,81.6006524 L221.49348,81.6106912 L220.943752,81.6752838 C219.355227,81.8606117 217.87155,82.0328331 216.492901,82.1919811 C214.817571,82.4014648 213.168157,82.6109473 211.544658,82.820431 L196.245994,84.7944522 L200.688666,70.0225685 C202.823405,62.9245612 204.93146,55.9332908 207.012755,49.0484759 C207.861577,46.1837197 208.74992,43.1872287 209.677784,40.0590029 C210.613333,36.9048659 211.548882,33.7640938 212.484431,30.6366868 C213.415164,27.5253818 214.306009,24.5337429 215.156964,21.6617691 C215.981835,18.877829 216.703942,16.3259788 217.322596,14.0060259 C217.883402,11.9030021 218.465369,9.59239462 219.069419,7.07455051 C221.495511,6.93823532 223.889582,6.7832562 226.251631,6.60957613 C229.79492,6.34904012 233.403339,6.03633453 237.076896,5.67158417 C240.57197,5.32455556 243.980379,4.85419491 247.301954,4.25928595 L260.249004,1.94041127 Z M150.344945,0 L150.343945,5.51065238 L175.790572,11.2560206 C171.95714,18.7099379 168.262244,26.0933912 164.707636,33.4077969 L163.381237,36.1474651 C162.465779,38.1381386 161.497604,40.1947917 160.476613,42.3173785 L157.436613,48.6373785 C156.416667,50.757791 155.42356,52.8111004 154.457296,54.7973096 C153.720249,56.3123501 153.031454,57.7468764 152.391069,59.101163 C152.148023,60.2739282 151.866109,61.5249857 151.544533,62.8541655 C151.138275,64.533366 150.745544,66.1313114 150.36637,67.6480086 C149.808138,69.7034582 149.275684,71.5530944 148.715189,73.4027263 L146.826806,79.6343916 L112.53733,83.8453798 L119.141727,54.9870401 C119.130986,53.0979912 119.093392,51.0754967 119.029354,48.9195511 C118.952214,46.3225145 118.836481,43.7126223 118.682201,41.0898726 C118.523077,38.3847508 118.363955,35.7724516 118.20483,33.2529754 C118.042849,30.6882785 117.907911,28.4205439 117.799924,26.4497768 C117.701425,24.6521787 117.604513,23.2115079 117.506013,22.1280098 L116.659193,12.8129856 L150.344945,0 Z M194.177028,29.2126957 L187.458839,64.5819873 L178.939347,64.3385732 C177.061557,64.2849221 175.277656,64.2312683 173.587645,64.1776171 C171.961284,64.1259866 170.309108,64.0872844 168.631117,64.0614692 C167.126982,64.0383286 165.840899,64.0254237 164.77276,64.0230493 C163.533976,64.0227401 162.494501,64.0353506 161.317663,64.0603897 C160.131477,64.0856277 158.932674,64.1235071 157.721251,64.1739831 C156.308033,64.2328672 154.835936,64.2626524 153.304945,64.2626524 L140.231893,64.2626524 L149.573528,29.8153732 L157.515062,30.109504 C158.968241,30.1633255 160.354143,30.2171504 161.672769,30.2709719 C162.910847,30.3215057 164.16156,30.3593849 165.424905,30.3846518 C166.538168,30.406917 167.493987,30.4195762 168.292589,30.4221636 C169.658955,30.4225428 170.934151,30.4096281 172.412557,30.3841384 C173.899282,30.3585052 175.373191,30.3200688 176.834284,30.2688024 C178.260673,30.2187537 179.749613,30.1434967 181.301122,30.0433993 L194.177028,29.2126957 Z" id="path-1"></path>
        <filter x="-1.9%" y="-6.9%" width="103.8%" height="117.2%" filterUnits="objectBoundingBox" id="filter-2">
            <feOffset dx="0" dy="2" in="SourceAlpha" result="shadowOffsetOuter1"></feOffset>
            <feGaussianBlur stdDeviation="2" in="shadowOffsetOuter1" result="shadowBlurOuter1"></feGaussianBlur>
            <feColorMatrix values="0 0 0 0 0   0 0 0 0 0   0 0 0 0 0  0 0 0 0.5 0" type="matrix" in="shadowBlurOuter1" result="shadowMatrixOuter1"></feColorMatrix>
            <feOffset dx="3" dy="-2" in="SourceAlpha" result="shadowOffsetOuter2"></feOffset>
            <feGaussianBlur stdDeviation="0.5" in="shadowOffsetOuter2" result="shadowBlurOuter2"></feGaussianBlur>
            <feColorMatrix values="0 0 0 0 1   0 0 0 0 0.184313725   0 0 0 0 0.662745098  0 0 0 0.5 0" type="matrix" in="shadowBlurOuter2" result="shadowMatrixOuter2"></feColorMatrix>
            <feOffset dx="-1" dy="2" in="SourceAlpha" result="shadowOffsetOuter3"></feOffset>
            <feGaussianBlur stdDeviation="0.5" in="shadowOffsetOuter3" result="shadowBlurOuter3"></feGaussianBlur>
            <feColorMatrix values="0 0 0 0 0   0 0 0 0 0.956862745   0 0 0 0 1  0 0 0 0.5 0" type="matrix" in="shadowBlurOuter3" result="shadowMatrixOuter3"></feColorMatrix>
            <feMerge>
                <feMergeNode in="shadowMatrixOuter1"></feMergeNode>
                <feMergeNode in="shadowMatrixOuter2"></feMergeNode>
                <feMergeNode in="shadowMatrixOuter3"></feMergeNode>
            </feMerge>
        </filter>
    </defs>
    <g id="pony-cause" stroke="none" stroke-width="1" fill="none" fill-rule="evenodd">
        <g transform="translate(24.5126, 46.3874)" fill-rule="nonzero">
            <g id="Combined-Shape-Copy">
                <use fill="black" fill-opacity="1" filter="url(#filter-2)" xlink:href="#path-1"></use>
                <use fill="#FFFFFF" xlink:href="#path-1"></use>
            </g>
            <path d="M270.424945,15.2226524 C269.038278,21.6759857 267.811612,27.5159857 266.744945,32.7426524 C266.264945,34.9826524 265.798278,37.2226524 265.344945,39.4626524 C264.891612,41.7026524 264.464945,43.7559857 264.064945,45.6226524 C263.664945,47.489319 263.318278,49.1026524 263.024945,50.4626524 C262.731612,51.8226524 262.491612,52.929319 262.304945,53.7826524 C262.118278,54.6359857 261.904945,55.7159857 261.664945,57.0226524 C261.424945,58.329319 261.304945,59.5159857 261.304945,60.5826524 C261.304945,61.4359857 261.518278,62.1426524 261.944945,62.7026524 C262.371612,63.2626524 262.904945,63.5426524 263.544945,63.5426524 C264.451612,63.5426524 265.198278,63.1826524 265.784945,62.4626524 C266.371612,61.7426524 266.864945,60.8759857 267.264945,59.8626524 C267.664945,58.849319 267.958278,57.8226524 268.144945,56.7826524 C268.331612,55.7426524 268.504945,54.929319 268.664945,54.3426524 C268.984945,52.7959857 269.344945,51.0759857 269.744945,49.1826524 C270.144945,47.289319 270.544945,45.3159857 270.944945,43.2626524 C271.344945,41.209319 271.744945,39.1159857 272.144945,36.9826524 C272.544945,34.849319 272.931612,32.769319 273.304945,30.7426524 C274.211612,26.049319 275.091612,21.1959857 275.944945,16.1826524 L288.104945,15.3826524 C288.104945,15.3826524 288.097563,15.4210376 288.0828,15.4978081 L288.055118,15.6417527 C287.994218,15.9584309 287.877494,16.5653975 287.704945,17.4626524 C287.438278,18.849319 287.091612,20.689319 286.664945,22.9826524 C286.238278,25.2759857 285.771612,27.889319 285.264945,30.8226524 C284.758278,33.7559857 284.184945,36.809319 283.544945,39.9826524 C282.904945,43.1559857 282.278278,46.2759857 281.664945,49.3426524 C281.051612,52.409319 280.451612,55.2226524 279.864945,57.7826524 C279.118278,60.8226524 278.064945,63.409319 276.704945,65.5426524 C275.344945,67.6759857 273.744945,69.4359857 271.904945,70.8226524 C270.064945,72.209319 268.104945,73.2226524 266.024945,73.8626524 C263.944945,74.5026524 261.864945,74.8226524 259.784945,74.8226524 C258.558278,74.8226524 257.304945,74.6226524 256.024945,74.2226524 C254.744945,73.8226524 253.598278,73.2226524 252.584945,72.4226524 C251.571612,71.6226524 250.731612,70.609319 250.064945,69.3826524 C249.398278,68.1559857 249.064945,66.7159857 249.064945,65.0626524 L249.064945,64.4226524 C249.064945,64.209319 249.091612,63.9959857 249.144945,63.7826524 C249.358278,61.5959857 249.704945,58.9559857 250.184945,55.8626524 C250.664945,52.769319 251.171612,49.5426524 251.704945,46.1826524 C252.238278,42.8226524 252.824945,39.449319 253.464945,36.0626524 C254.104945,32.6759857 254.678278,29.5959857 255.184945,26.8226524 C255.691612,24.049319 256.131612,21.7426524 256.504945,19.9026524 C256.816056,18.369319 257.034575,17.3267265 257.160501,16.7748746 L257.205933,16.5803067 C257.212682,16.5522409 257.219019,16.5263561 257.224945,16.5026524 C258.344945,16.3959857 259.678278,16.2626524 261.224945,16.1026524 C262.771612,15.9426524 264.211612,15.809319 265.544945,15.7026524 C267.198278,15.5426524 268.824945,15.3826524 270.424945,15.2226524 Z M127.704945,13.3826524 C125.891612,21.5426524 124.291612,29.2759857 122.904945,36.5826524 C122.264945,39.729319 121.638278,42.9159857 121.024945,46.1426524 C120.411612,49.369319 119.838278,52.4626524 119.304945,55.4226524 C118.771612,58.3826524 118.318278,61.129319 117.944945,63.6626524 C117.571612,66.1959857 117.278278,68.3159857 117.064945,70.0226524 C116.904945,70.0226524 116.278278,70.1426524 115.184945,70.3826524 C114.091612,70.6226524 112.838278,70.9026524 111.424945,71.2226524 L107.184945,72.1826524 C105.771612,72.5026524 104.718278,72.7959857 104.024945,73.0626524 C103.704945,68.7959857 103.358278,64.7426524 102.984945,60.9026524 C102.824945,59.249319 102.651612,57.5559857 102.464945,55.8226524 C102.278278,54.089319 102.078278,52.4226524 101.864945,50.8226524 C101.651612,49.2226524 101.438278,47.729319 101.224945,46.3426524 C101.011612,44.9559857 100.798278,43.7559857 100.584945,42.7426524 C100.424945,43.7559857 100.211612,44.929319 99.9449451,46.2626524 C99.6782784,47.5959857 99.4116118,49.009319 99.1449451,50.5026524 C98.8782784,51.9959857 98.6116118,53.5559857 98.3449451,55.1826524 C98.0782784,56.809319 97.7849451,58.369319 97.4649451,59.8626524 C96.7716118,63.4359857 96.0249451,67.169319 95.2249451,71.0626524 L83.5449451,73.7826524 C85.1449451,66.1026524 86.6649451,58.6626524 88.1049451,51.4626524 C88.6382784,48.369319 89.2116118,45.169319 89.8249451,41.8626524 C90.4382784,38.5559857 91.0116118,35.289319 91.5449451,32.0626524 C92.0782784,28.8359857 92.5582784,25.7426524 92.9849451,22.7826524 C93.4116118,19.8226524 93.7316118,17.1426524 93.9449451,14.7426524 C94.6382784,14.7959857 95.2249451,14.8226524 95.7049451,14.8226524 L97.3849451,14.8226524 C98.1316118,14.8226524 99.0382784,14.809319 100.104945,14.7826524 C101.171612,14.7559857 102.238278,14.7159857 103.304945,14.6626524 C104.371612,14.609319 105.518278,14.5559857 106.744945,14.5026524 C107.491612,18.2359857 108.158278,21.8359857 108.744945,25.3026524 C109.331612,28.3426524 109.931612,31.4626524 110.544945,34.6626524 C111.158278,37.8626524 111.704945,40.5826524 112.184945,42.8226524 C112.398278,41.7559857 112.638278,40.5159857 112.904945,39.1026524 C113.171612,37.689319 113.464945,36.209319 113.784945,34.6626524 C114.104945,33.1159857 114.411612,31.5559857 114.704945,29.9826524 C114.998278,28.409319 115.304945,26.849319 115.624945,25.3026524 C116.371612,21.8359857 117.144945,18.2626524 117.944945,14.5826524 L127.704945,13.3826524 Z M76.4249451,13.5426524 C78.8249451,13.5426524 80.8116118,14.0359857 82.3849451,15.0226524 C83.9582784,16.009319 85.1849451,17.289319 86.0649451,18.8626524 C86.9449451,20.4359857 87.5716118,22.209319 87.9449451,24.1826524 C88.3182784,26.1559857 88.5049451,28.129319 88.5049451,30.1026524 C88.5049451,34.4759857 88.0382784,38.5959857 87.1049451,42.4626524 C86.1716118,46.329319 84.9316118,49.8759857 83.3849451,53.1026524 C81.8382784,56.329319 80.0382784,59.209319 77.9849451,61.7426524 C75.9316118,64.2759857 73.7849451,66.4359857 71.5449451,68.2226524 C69.3049451,70.009319 67.0382784,71.369319 64.7449451,72.3026524 C62.4516118,73.2359857 60.2649451,73.7026524 58.1849451,73.7026524 C56.4249451,73.7026524 54.8249451,73.369319 53.3849451,72.7026524 C51.9449451,72.0359857 50.6916118,71.049319 49.6249451,69.7426524 C48.5582784,68.4359857 47.7182784,66.7559857 47.1049451,64.7026524 C46.4916118,62.649319 46.1849451,60.1826524 46.1849451,57.3026524 C46.1849451,54.3159857 46.5582784,51.169319 47.3049451,47.8626524 C48.0516118,44.5559857 49.0649451,41.2759857 50.3449451,38.0226524 C51.6249451,34.769319 53.1982784,31.6759857 55.0649451,28.7426524 C56.9316118,25.809319 58.9849451,23.209319 61.2249451,20.9426524 C63.4649451,18.6759857 65.8649451,16.8759857 68.4249451,15.5426524 C70.9849451,14.209319 73.6516118,13.5426524 76.4249451,13.5426524 Z M210.184945,14.9026524 C211.464945,14.9026524 212.691612,15.169319 213.864945,15.7026524 C215.038278,16.2359857 216.051612,16.9826524 216.904945,17.9426524 C217.758278,18.9026524 218.438278,20.0759857 218.944945,21.4626524 C219.451612,22.849319 219.704945,24.3959857 219.704945,26.1026524 L219.704945,27.1026524 C219.704945,27.449319 219.678278,27.809319 219.624945,28.1826524 L209.144945,30.9826524 C208.504945,29.649319 207.758278,28.9826524 206.904945,28.9826524 C206.051612,28.9826524 205.158278,29.4759857 204.224945,30.4626524 C203.291612,31.449319 202.371612,32.729319 201.464945,34.3026524 C200.558278,35.8759857 199.678278,37.6359857 198.824945,39.5826524 C197.971612,41.529319 197.224945,43.489319 196.584945,45.4626524 C195.944945,47.4359857 195.424945,49.3159857 195.024945,51.1026524 C194.624945,52.889319 194.424945,54.3426524 194.424945,55.4626524 C194.424945,57.169319 194.651612,58.369319 195.104945,59.0626524 C195.558278,59.7559857 196.158278,60.1026524 196.904945,60.1026524 C197.491612,60.1026524 198.158278,59.8759857 198.904945,59.4226524 C199.651612,58.969319 200.344945,58.3826524 200.984945,57.6626524 C201.624945,56.9426524 202.211612,56.129319 202.744945,55.2226524 C203.278278,54.3159857 203.651612,53.409319 203.864945,52.5026524 L212.984945,56.1826524 C211.704945,59.1159857 210.278278,61.6626524 208.704945,63.8226524 C207.131612,65.9826524 205.478278,67.7959857 203.744945,69.2626524 C202.011612,70.729319 200.264945,71.809319 198.504945,72.5026524 C196.744945,73.1959857 195.038278,73.5426524 193.384945,73.5426524 C191.731612,73.5426524 190.224945,73.169319 188.864945,72.4226524 C187.504945,71.6759857 186.318278,70.5559857 185.304945,69.0626524 C184.291612,67.569319 183.478278,65.729319 182.864945,63.5426524 C182.251612,61.3559857 181.944945,58.7959857 181.944945,55.8626524 C181.944945,50.849319 182.638278,45.9026524 184.024945,41.0226524 C185.411612,36.1426524 187.358278,31.7559857 189.864945,27.8626524 C192.371612,23.969319 195.344945,20.8359857 198.784945,18.4626524 C202.224945,16.089319 206.024945,14.9026524 210.184945,14.9026524 Z M310.984945,14.9826524 C312.424945,14.9826524 313.784945,15.1559857 315.064945,15.5026524 C316.344945,15.849319 317.451612,16.409319 318.384945,17.1826524 C319.318278,17.9559857 320.064945,18.929319 320.624945,20.1026524 C321.184945,21.2759857 321.464945,22.7426524 321.464945,24.5026524 C321.464945,25.249319 321.398278,25.9959857 321.264945,26.7426524 C321.131612,27.489319 321.011612,28.289319 320.904945,29.1426524 L309.304945,32.5026524 C309.411612,32.0759857 309.504945,31.649319 309.584945,31.2226524 C309.664945,30.7959857 309.704945,30.369319 309.704945,29.9426524 C309.704945,28.3426524 309.424945,27.1826524 308.864945,26.4626524 C308.304945,25.7426524 307.571612,25.3826524 306.664945,25.3826524 C306.238278,25.3826524 305.718278,25.5426524 305.104945,25.8626524 C304.491612,26.1826524 303.878278,26.5959857 303.264945,27.1026524 C302.651612,27.609319 302.131612,28.209319 301.704945,28.9026524 C301.278278,29.5959857 301.064945,30.3426524 301.064945,31.1426524 C301.064945,32.4226524 301.424945,33.489319 302.144945,34.3426524 C302.864945,35.1959857 303.758278,35.9959857 304.824945,36.7426524 C305.891612,37.489319 307.051612,38.249319 308.304945,39.0226524 C309.558278,39.7959857 310.718278,40.7959857 311.784945,42.0226524 C312.851612,43.249319 313.744945,44.7826524 314.464945,46.6226524 C315.184945,48.4626524 315.544945,50.7959857 315.544945,53.6226524 C315.544945,56.609319 314.971612,59.3159857 313.824945,61.7426524 C312.678278,64.169319 311.131612,66.2626524 309.184945,68.0226524 C307.238278,69.7826524 304.944945,71.1426524 302.304945,72.1026524 C299.664945,73.0626524 296.824945,73.5426524 293.784945,73.5426524 C291.651612,73.5426524 289.518278,72.969319 287.384945,71.8226524 C285.251612,70.6759857 283.198278,68.849319 281.224945,66.3426524 L287.144945,54.7426524 C287.518278,55.4359857 288.078278,56.1426524 288.824945,56.8626524 C289.571612,57.5826524 290.411612,58.209319 291.344945,58.7426524 C292.278278,59.2759857 293.211612,59.7159857 294.144945,60.0626524 C295.078278,60.409319 295.918278,60.5826524 296.664945,60.5826524 C297.304945,60.5826524 297.971612,60.4759857 298.664945,60.2626524 C299.358278,60.049319 299.998278,59.729319 300.584945,59.3026524 C301.171612,58.8759857 301.638278,58.3826524 301.984945,57.8226524 C302.331612,57.2626524 302.504945,56.609319 302.504945,55.8626524 C302.504945,54.5826524 302.091612,53.3959857 301.264945,52.3026524 C300.438278,51.209319 299.411612,50.169319 298.184945,49.1826524 C296.958278,48.1959857 295.624945,47.1959857 294.184945,46.1826524 C292.744945,45.169319 291.424945,44.1026524 290.224945,42.9826524 C289.024945,41.8626524 287.998278,40.609319 287.144945,39.2226524 C286.291612,37.8359857 285.864945,36.289319 285.864945,34.5826524 C285.864945,31.809319 286.691612,29.2226524 288.344945,26.8226524 C289.998278,24.4226524 292.064945,22.3559857 294.544945,20.6226524 C297.024945,18.889319 299.731612,17.5159857 302.664945,16.5026524 C305.598278,15.489319 308.371612,14.9826524 310.984945,14.9826524 Z M38.0249451,14.3426524 C40.4249451,14.3426524 42.4382784,14.7426524 44.0649451,15.5426524 C45.6916118,16.3426524 47.0116118,17.4226524 48.0249451,18.7826524 C49.0382784,20.1426524 49.7582784,21.729319 50.1849451,23.5426524 C50.6116118,25.3559857 50.8249451,27.3026524 50.8249451,29.3826524 C50.8249451,32.369319 50.2782784,35.249319 49.1849451,38.0226524 C48.0916118,40.7959857 46.6249451,43.2626524 44.7849451,45.4226524 C42.9449451,47.5826524 40.8382784,49.3026524 38.4649451,50.5826524 C36.0916118,51.8626524 33.6249451,52.5026524 31.0649451,52.5026524 L30.1849451,52.5026524 C29.7582784,54.3159857 29.3582784,56.289319 28.9849451,58.4226524 C28.6116118,60.5559857 28.2916118,62.529319 28.0249451,64.3426524 C27.6516118,66.4759857 27.3049451,68.609319 26.9849451,70.7426524 L13.1449451,73.4626524 C14.7449451,66.2626524 16.2649451,59.2226524 17.7049451,52.3426524 C18.2916118,49.4626524 18.9049451,46.4226524 19.5449451,43.2226524 C20.1849451,40.0226524 20.7982784,36.8759857 21.3849451,33.7826524 C21.9716118,30.689319 22.5316118,27.7026524 23.0649451,24.8226524 C23.5982784,21.9426524 24.0516118,19.3026524 24.4249451,16.9026524 C25.9716118,16.4226524 27.4916118,16.009319 28.9849451,15.6626524 C30.4782784,15.3159857 32.0116118,15.009319 33.5849451,14.7426524 C35.1582784,14.4759857 36.6382784,14.3426524 38.0249451,14.3426524 Z M350.904945,14.4226524 C350.531612,15.5959857 350.211612,16.7959857 349.944945,18.0226524 C349.678278,19.0359857 349.424945,20.089319 349.184945,21.1826524 C348.944945,22.2759857 348.744945,23.249319 348.584945,24.1026524 C348.051612,24.1559857 347.291612,24.1959857 346.304945,24.2226524 C345.318278,24.249319 344.264945,24.2759857 343.144945,24.3026524 C342.024945,24.329319 340.891612,24.3426524 339.744945,24.3426524 L336.744945,24.3426524 L333.944945,38.6626524 C335.598278,38.5559857 337.144945,38.4759857 338.584945,38.4226524 C339.758278,38.369319 340.958278,38.3426524 342.184945,38.3426524 C343.411612,38.3426524 344.318278,38.3159857 344.904945,38.2626524 C344.691612,39.7559857 344.491612,41.2226524 344.304945,42.6626524 C344.118278,44.1026524 343.891612,45.569319 343.624945,47.0626524 C343.091612,47.1159857 342.224945,47.1559857 341.024945,47.1826524 C339.824945,47.209319 338.611612,47.249319 337.384945,47.3026524 C335.998278,47.3559857 334.478278,47.409319 332.824945,47.4626524 L330.104945,62.1826524 L341.784945,60.3426524 L340.984945,69.4626524 L315.144945,73.4626524 L325.624945,16.5826524 L350.904945,14.4226524 Z M249.064945,14.1026524 C248.904945,15.809319 248.731612,17.929319 248.544945,20.4626524 C248.358278,22.9959857 248.184945,25.7559857 248.024945,28.7426524 C247.864945,31.729319 247.704945,34.849319 247.544945,38.1026524 C247.384945,41.3559857 247.224945,44.5559857 247.064945,47.7026524 C246.798278,55.0626524 246.504945,62.8759857 246.184945,71.1426524 C244.584945,71.409319 242.984945,71.6226524 241.384945,71.7826524 C240.051612,71.9959857 238.584945,72.2359857 236.984945,72.5026524 C235.384945,72.769319 233.944945,73.009319 232.664945,73.2226524 C232.878278,71.4626524 233.091612,69.729319 233.304945,68.0226524 C233.464945,66.529319 233.611612,65.0359857 233.744945,63.5426524 C233.878278,62.049319 233.998278,60.769319 234.104945,59.7026524 L227.144945,59.7026524 L223.944945,71.2226524 C222.771612,71.3826524 221.384945,71.5559857 219.784945,71.7426524 C218.184945,71.929319 216.691612,72.1026524 215.304945,72.2626524 C213.598278,72.4759857 211.918278,72.689319 210.264945,72.9026524 C212.398278,65.809319 214.504945,58.8226524 216.584945,51.9426524 C217.438278,49.0626524 218.331612,46.049319 219.264945,42.9026524 C220.198278,39.7559857 221.131612,36.6226524 222.064945,33.5026524 C222.998278,30.3826524 223.891612,27.3826524 224.744945,24.5026524 C225.598278,21.6226524 226.344945,18.9826524 226.984945,16.5826524 C230.611612,16.3159857 234.304945,15.9959857 238.064945,15.6226524 C241.824945,15.249319 245.491612,14.7426524 249.064945,14.1026524 Z M140.344945,14.5026524 L140.344945,28.3426524 C140.344945,29.729319 140.331612,31.089319 140.304945,32.4226524 C140.278278,33.7559857 140.264945,35.009319 140.264945,36.1826524 L140.264945,39.1426524 C140.958278,37.329319 141.798278,35.089319 142.784945,32.4226524 C143.771612,29.7559857 144.691612,27.169319 145.544945,24.6626524 C146.558278,21.729319 147.598278,18.6359857 148.664945,15.3826524 L161.064945,18.1826524 C158.771612,22.769319 156.531612,27.329319 154.344945,31.8626524 C153.438278,33.8359857 152.478278,35.8759857 151.464945,37.9826524 C150.451612,40.089319 149.438278,42.1959857 148.424945,44.3026524 C147.411612,46.409319 146.424945,48.449319 145.464945,50.4226524 C144.504945,52.3959857 143.624945,54.2359857 142.824945,55.9426524 C142.558278,57.329319 142.224945,58.849319 141.824945,60.5026524 C141.424945,62.1559857 141.038278,63.729319 140.664945,65.2226524 C140.184945,66.9826524 139.678278,68.7426524 139.144945,70.5026524 L125.464945,72.1826524 L129.144945,56.1026524 C129.144945,53.809319 129.104945,51.3159857 129.024945,48.6226524 C128.944945,45.929319 128.824945,43.2226524 128.664945,40.5026524 C128.504945,37.7826524 128.344945,35.1559857 128.184945,32.6226524 C128.024945,30.089319 127.891612,27.849319 127.784945,25.9026524 C127.678278,23.9559857 127.571612,22.3959857 127.464945,21.2226524 C127.358278,20.049319 127.304945,19.4626524 127.304945,19.4626524 L140.344945,14.5026524 Z M73.6249451,30.3426524 C71.9182784,30.3426524 70.3449451,30.769319 68.9049451,31.6226524 C67.4649451,32.4759857 66.1716118,33.609319 65.0249451,35.0226524 C63.8782784,36.4359857 62.8782784,38.0359857 62.0249451,39.8226524 C61.1716118,41.609319 60.4382784,43.4226524 59.8249451,45.2626524 C59.2116118,47.1026524 58.7716118,48.9026524 58.5049451,50.6626524 C58.2382784,52.4226524 58.1049451,53.9426524 58.1049451,55.2226524 C58.1049451,55.809319 58.2116118,56.4226524 58.4249451,57.0626524 C58.6382784,57.7026524 58.9316118,58.2626524 59.3049451,58.7426524 C59.6782784,59.2226524 60.1449451,59.6359857 60.7049451,59.9826524 C61.2649451,60.329319 61.8649451,60.5026524 62.5049451,60.5026524 C64.9049451,60.5026524 67.0382784,59.6759857 68.9049451,58.0226524 C70.7716118,56.369319 72.3182784,54.3426524 73.5449451,51.9426524 C74.7716118,49.5426524 75.7182784,46.9826524 76.3849451,44.2626524 C77.0516118,41.5426524 77.3849451,39.0626524 77.3849451,36.8226524 C77.3849451,36.1826524 77.3449451,35.489319 77.2649451,34.7426524 C77.1849451,33.9959857 77.0249451,33.3026524 76.7849451,32.6626524 C76.5449451,32.0226524 76.1716118,31.4759857 75.6649451,31.0226524 C75.1582784,30.569319 74.4782784,30.3426524 73.6249451,30.3426524 Z M181.944945,40.0226524 L179.224945,54.3426524 C177.358278,54.289319 175.584945,54.2359857 173.904945,54.1826524 C172.224945,54.129319 170.518278,54.089319 168.784945,54.0626524 C167.224945,54.0386524 165.891745,54.0254524 164.785345,54.0230524 L164.424945,54.0226524 C163.464945,54.0226524 162.358278,54.0359857 161.104945,54.0626524 C159.851612,54.089319 158.584945,54.129319 157.304945,54.1826524 C156.024945,54.2359857 154.691612,54.2626524 153.304945,54.2626524 L157.144945,40.1026524 C158.584945,40.1559857 159.958278,40.209319 161.264945,40.2626524 C162.571612,40.3159857 163.891612,40.3559857 165.224945,40.3826524 C166.41013,40.4063561 167.426756,40.4195248 168.274822,40.4221586 L168.584945,40.4226524 C169.704945,40.4226524 171.038278,40.409319 172.584945,40.3826524 C174.131612,40.3559857 175.664945,40.3159857 177.184945,40.2626524 C178.704945,40.209319 180.291612,40.129319 181.944945,40.0226524 Z M237.064945,24.6626524 L235.864945,24.7426524 L234.024945,31.6226524 L229.064945,51.7026524 C229.278278,51.7026524 229.664945,51.689319 230.224945,51.6626524 C230.784945,51.6359857 231.371612,51.609319 231.984945,51.5826524 C232.598278,51.5559857 233.171612,51.529319 233.704945,51.5026524 C234.238278,51.4759857 234.611612,51.4359857 234.824945,51.3826524 C234.824945,51.0626524 234.864945,50.5159857 234.944945,49.7426524 C235.024945,48.969319 235.104945,48.089319 235.184945,47.1026524 C235.264945,46.1159857 235.358278,45.0359857 235.464945,43.8626524 C235.571612,42.689319 235.678278,41.5426524 235.784945,40.4226524 C235.998278,37.7026524 236.264945,34.769319 236.584945,31.6226524 L237.064945,24.6626524 Z M35.4649451,24.0226524 C34.8782784,27.5426524 34.2916118,30.8759857 33.7049451,34.0226524 C33.1182784,37.169319 32.4782784,40.529319 31.7849451,44.1026524 C32.6382784,43.889319 33.5316118,43.3959857 34.4649451,42.6226524 C35.3982784,41.849319 36.2649451,40.8359857 37.0649451,39.5826524 C37.8649451,38.329319 38.5049451,36.8759857 38.9849451,35.2226524 C39.4649451,33.569319 39.7049451,31.8359857 39.7049451,30.0226524 C39.7049451,28.049319 39.2649451,26.5559857 38.3849451,25.5426524 C37.5049451,24.529319 36.5316118,24.0226524 35.4649451,24.0226524 Z" id="Combined-Shape" fill="#FF2FA9"></path>
        </g>
    </g>
</svg>